<svg xmlns="http://www.w3.org/2000/svg" width="4.234in" height="4.505in" viewBox="0 0 304.821 324.352">
  <title>patch_minimal</title>
  <path d="M299.46,245.516l-35.825-32.353A134.184,134.184,0,0,0,152.449,4h-0.078A134.184,134.184,0,0,0,41.185,213.164L5.361,245.516A182.415,182.415,0,0,0,152.007,320.34v0.012c0.135,0,.268-0.006.4-0.006s0.268,0.006.4,0.006V320.34A182.415,182.415,0,0,0,299.46,245.516Z" style="fill: #fff;stroke: #231f20;stroke-miterlimit: 10;stroke-width: 8px"/>
  <g>
    <polyline points="170.783 78.904 170.783 109.146 195.533 94.857 211.892 123.19 184.718 138.879 210.892 153.991 194.533 182.324 170.783 168.612 170.783 197.467 170.774 197.467 133.128 197.467 133.119 197.467 133.119 168.612 109.368 182.324 93.01 153.991 119.184 138.879 92.01 123.19 108.368 94.857 133.119 109.146 133.119 78.904 133.128 78.904 170.774 78.904 170.783 78.904" style="fill: #fff;stroke: #231f20;stroke-miterlimit: 10;stroke-width: 2px"/>
    <g>
      <polygon points="127.619 202.967 127.619 178.139 107.355 189.838 85.497 151.977 108.184 138.879 84.497 125.204 106.355 87.343 127.619 99.62 127.619 78.904 127.63 73.404 176.283 73.404 176.283 99.62 197.547 87.343 219.405 125.204 195.718 138.879 218.405 151.977 196.547 189.838 176.283 178.139 176.283 197.467 176.272 202.967 127.619 202.967" style="fill: #206fb7"/>
      <path d="M175.283,74.4v26.948l18-10.392,3.9-2.25,2.25,3.9,16.358,28.334,2.25,3.9-3.9,2.25-20.424,11.792,19.424,11.215,3.9,2.25-2.25,3.9L198.43,184.574l-2.25,3.9-3.9-2.25-17-9.815v21.061l-0.009,4.5H128.619V176.406l-17,9.815-3.9,2.25-2.25-3.9L89.113,156.241l-2.25-3.9,3.9-2.25,19.424-11.215L89.76,127.087l-3.9-2.25,2.25-3.9,16.358-28.334,2.25-3.9,3.9,2.25,18,10.392V78.9l0.009-4.5h46.655m2-2H126.632l0,2-0.009,4.5V97.888l-15-8.66-3.9-2.25-1.732-1-1,1.732-2.25,3.9L86.381,119.94l-2.25,3.9-1,1.732,1.732,1,3.9,2.25,17.424,10.06L89.76,148.361l-3.9,2.25-1.732,1,1,1.732,2.25,3.9,16.358,28.333,2.25,3.9,1,1.732,1.732-1,3.9-2.25,14-8.083v24.1H177.27l0-2,0.009-4.5v-17.6l14,8.083,3.9,2.25,1.732,1,1-1.732,2.25-3.9,16.358-28.333,2.25-3.9,1-1.732-1.732-1-3.9-2.25-16.424-9.482,17.424-10.06,3.9-2.25,1.732-1-1-1.732-2.25-3.9L201.163,91.607l-2.25-3.9-1-1.732-1.732,1-3.9,2.25-15,8.66V72.4h0Z" style="fill: #231f20"/>
    </g>
  </g>
  <g>
    <path d="M110.623,265.685" style="fill: none;stroke: #8bc63f;stroke-miterlimit: 10;stroke-width: 8px"/>
    <path d="M41.185,213.164" style="fill: none;stroke: #8bc63f;stroke-miterlimit: 10;stroke-width: 8px"/>
    <path d="M232.106,30.2" style="fill: none;stroke: #8bc63f;stroke-miterlimit: 10;stroke-width: 8px"/>
    <circle cx="152.41" cy="138.185" r="92.555" style="fill: none;stroke: #e21f26;stroke-miterlimit: 10;stroke-width: 39px"/>
    <circle cx="152.41" cy="138.185" r="121.782" style="fill: none;stroke: #c7c8ca;stroke-miterlimit: 10;stroke-width: 5px"/>
  </g>
  <g>
    <g>
      <polyline points="120.795 215.602 132.086 215.602 132.086 222.102 139.086 227.227 139.086 228.852 116.175 228.852 120.795 225.215 120.795 215.602" style="fill: #58595b"/>
      <path d="M139.586,229.352H115.744l0.085-1.279,4.466-3.119V215.1h12.292v6.746l7,5.125v2.379Zm-22.411-1h21.411v-0.871l-7-5.125V216.1H121.294v9.373Z" style="fill: #414042"/>
    </g>
    <path d="M31.628,244.194s17.292-35.963,89.417-34.838V225.09s-57.75-4.833-77.833,30.417Z" style="fill: #6d6e71;stroke: #414042;stroke-miterlimit: 10"/>
    <g>
      <path d="M34.47,246.97l-8.342,10.787,7.958,0.417,2.875,11.667s7.792-13.25,9.833-13.958l-3.25.125Z" style="fill: #58595b"/>
      <path d="M36.77,271.152l-3.08-12.5-8.542-.447,9.272-11.99,9.322,9.283,4.462-.172-1.246,1.027c-1.049.784-6.59,8.678-9.566,13.739Zm-9.663-13.845,7.375,0.387,2.672,10.84c1.749-2.928,5.786-9.516,8.2-12.1l-2.006.077-8.828-8.791Z" style="fill: #414042"/>
    </g>
    <polyline points="120.795 225.215 115.586 228.852 115.586 225.005 120.795 225.215" style="fill: #6d6e71"/>
    <path d="M115.086,229.42v-4.936l6.017,0.243,0.446,0.88-5.094,3.745Zm1-3.895v2.368l3.205-2.239Z" style="fill: #414042"/>
    <g>
      <polygon points="139.086 227.227 139.086 222.227 132.257 222.227 139.086 227.227" style="fill: #6d6e71"/>
      <path d="M139.586,228.213l-7.787-5.465,0.125-1.021h7.662v6.485Zm-5.8-5.485,4.8,3.515v-3.515h-4.8Z" style="fill: #414042"/>
    </g>
    <g>
      <polyline points="184.086 215.602 172.795 215.602 172.795 222.102 165.795 227.227 165.795 228.852 188.706 228.852 184.086 225.215 184.086 215.602" style="fill: #58595b"/>
      <path d="M165.294,226.974l7-5.125V215.1h12.292v9.852l4.466,3.119,0.085,1.279H165.294v-2.379Zm18.292-1.5V216.1H173.294v6.254l-7,5.125v0.871h21.411Z" style="fill: #414042"/>
    </g>
    <path d="M273.253,244.194s-17.292-35.963-89.417-34.838V225.09s57.75-4.833,77.833,30.417Z" style="fill: #6d6e71;stroke: #414042;stroke-miterlimit: 10"/>
    <g>
      <path d="M270.411,246.97l8.342,10.787-7.958.417L267.92,269.84s-7.792-13.25-9.833-13.958l3.25,0.125Z" style="fill: #58595b"/>
      <path d="M267.488,270.094c-2.976-5.062-8.517-12.955-9.566-13.739l-1.246-1.027,4.462,0.172,9.322-9.283,9.272,11.99-8.542.447-3.08,12.5Zm2.874-22.37-8.828,8.791-2.006-.077c2.412,2.581,6.449,9.169,8.2,12.1l2.672-10.84,7.375-.387Z" style="fill: #414042"/>
    </g>
    <g>
      <polyline points="184.086 225.215 189.295 228.852 189.295 225.005 184.086 225.215" style="fill: #6d6e71"/>
      <path d="M188.425,229.352l-5.094-3.745,0.446-.88,6.017-.243v4.936Zm-2.835-3.7,3.205,2.239v-2.368Z" style="fill: #414042"/>
    </g>
    <g>
      <polygon points="165.795 227.227 165.795 222.227 172.624 222.227 165.795 227.227" style="fill: #6d6e71"/>
      <path d="M165.294,221.727h7.662l0.125,1.021-7.787,5.465v-6.485Zm1,1v3.515l4.8-3.515h-4.8Z" style="fill: #414042"/>
    </g>
    <rect x="131.628" y="206.227" width="41.625" height="16" style="fill: #6d6e71;stroke: #414042;stroke-miterlimit: 10"/>
  </g>
  <path d="M250.569,255.486a152.965,152.965,0,0,1-196.287.025" style="fill: none;stroke: #6d6e71;stroke-miterlimit: 10;stroke-width: 23px"/>
  <path d="M151.675,104.091" style="fill: #231f20"/>
</svg>
